<?xml version="1.0" standalone="no"?>
<!DOCTYPE svg PUBLIC "-//W3C//DTD SVG 20010904//EN"
 "http://www.w3.org/TR/2001/REC-SVG-20010904/DTD/svg10.dtd">
<svg version="1.0" xmlns="http://www.w3.org/2000/svg"
 width="280.000000pt" height="200.000000pt" viewBox="0 0 280.000000 200.000000"
 preserveAspectRatio="xMidYMid meet">

<g transform="translate(0.000000,200.000000) scale(0.100000,-0.100000)"
fill="#000000" stroke="none">
<path d="M861 1837 c-6 -8 -18 -31 -27 -52 -15 -36 -15 -40 2 -52 10 -7 22
-13 26 -13 5 0 4 -9 -2 -21 -7 -11 -10 -22 -8 -24 21 -18 323 -147 366 -156 4
-1 17 -5 30 -10 19 -7 24 -5 31 15 8 18 15 22 39 18 27 -4 31 0 47 42 16 42
16 48 2 69 -10 16 -33 29 -63 36 -64 16 -264 95 -333 131 -61 33 -93 37 -110
17z"/>
<path d="M836 1635 c-4 -12 -14 -15 -33 -11 -34 7 -49 -1 -62 -36 -11 -30 0
-44 59 -70 151 -69 314 -136 407 -168 58 -21 77 -14 88 32 5 20 1 32 -16 49
-13 13 -22 33 -21 45 2 17 -2 21 -26 22 -36 1 -238 75 -317 116 -33 17 -63 32
-66 34 -4 1 -9 -4 -13 -13z"/>
<path d="M632 1315 c-17 -37 -15 -44 13 -57 21 -9 25 -16 20 -38 -6 -25 -1
-29 77 -65 118 -54 270 -114 307 -121 27 -6 33 -3 37 14 5 17 12 19 44 15 35
-5 38 -3 48 26 12 35 14 33 -53 51 -107 28 -373 139 -476 197 -3 2 -11 -8 -17
-22z"/>
<path d="M1215 1322 c6 -4 11 -22 12 -40 1 -30 0 -32 -13 -15 -13 16 -14 16
-8 1 3 -10 2 -18 -4 -18 -6 0 -15 -13 -21 -30 -13 -38 3 -40 23 -2 8 15 15 22
16 17 0 -21 -32 -55 -53 -55 -20 -1 -20 -2 -4 -11 9 -5 17 -17 17 -24 0 -24
28 -17 36 8 4 12 18 46 32 75 21 45 23 57 13 75 -7 13 -22 24 -34 24 -12 1
-17 -1 -12 -5z m35 -16 c0 -3 -4 -8 -10 -11 -5 -3 -10 -1 -10 4 0 6 5 11 10
11 6 0 10 -2 10 -4z"/>
<path d="M1325 1238 c-4 -18 -18 -57 -31 -86 l-23 -53 21 7 c15 5 26 0 39 -17
16 -21 21 -22 39 -11 19 12 53 0 308 -103 158 -64 368 -148 467 -187 99 -39
187 -74 197 -79 12 -6 20 0 32 25 9 19 16 45 15 58 -1 18 -3 15 -11 -12 -5
-19 -17 -42 -25 -50 -14 -13 -15 -13 -8 5 20 55 23 74 12 83 -10 9 -280 119
-784 320 -111 45 -143 61 -145 77 -2 15 -11 20 -33 20 -20 0 -31 6 -33 18 -6
29 -30 19 -37 -15z"/>
<path d="M645 1159 c-4 -5 -17 -9 -31 -9 -14 0 -22 -4 -19 -10 3 -5 0 -7 -8
-4 -10 4 -20 -8 -32 -40 -17 -43 -17 -47 0 -72 30 -46 375 -194 453 -194 42 0
59 14 81 65 8 19 9 31 2 33 -5 2 -8 9 -5 16 3 8 -2 16 -11 19 -10 5 -14 14
-10 30 5 18 2 23 -17 24 -39 3 -210 64 -305 108 -51 24 -95 39 -98 34z m90
-97 c-3 -3 -11 0 -18 7 -9 10 -8 11 6 5 10 -3 15 -9 12 -12z"/>
<path d="M1140 1150 c18 -12 30 -13 30 -2 0 4 -10 9 -22 9 -18 2 -20 0 -8 -7z"/>
<path d="M348 762 c-24 -3 -45 -28 -34 -40 10 -9 659 -20 854 -13 190 6 250 1
165 -13 -82 -14 -771 -19 -918 -7 -167 14 -175 11 -175 -50 l0 -38 58 -8 c31
-4 300 -8 596 -8 297 0 533 -1 525 -3 -11 -2 -14 -22 -14 -89 0 -84 1 -87 25
-93 21 -5 18 -8 -20 -13 -213 -32 -995 -33 -1142 -2 -26 6 -26 5 -30 -50 -1
-31 0 -59 4 -61 21 -13 307 -24 618 -24 432 -1 657 16 611 44 -7 5 -11 66 -11
194 0 103 -4 192 -8 199 -4 6 -21 13 -37 15 -25 2 -29 7 -27 26 2 12 -3 24
-10 27 -14 5 -987 12 -1030 7z"/>
<path d="M2481 749 c0 -15 -10 -38 -21 -52 -13 -16 -16 -28 -10 -32 14 -8 42
61 37 89 -4 18 -4 17 -6 -5z"/>
<path d="M2510 743 c0 -10 -9 -33 -21 -52 -11 -18 -19 -35 -17 -36 2 -2 21
-10 43 -19 39 -17 40 -16 58 5 22 27 32 68 21 79 -5 5 -26 16 -46 25 -36 14
-38 14 -38 -2z"/>
<path d="M200 236 c0 -52 -1 -51 123 -68 127 -17 928 -17 1054 0 124 17 123
16 123 68 0 42 -1 43 -25 34 -123 -47 -1201 -46 -1249 1 -19 18 -26 8 -26 -35z"/>
</g>
</svg>
